<svg id="Group_22" data-name="Group 22" xmlns="http://www.w3.org/2000/svg" width="25.768" height="18.954" viewBox="0 0 25.768 18.954">
  <g id="Group_19" data-name="Group 19">
    <path id="Path_12" data-name="Path 12" d="M495.2,493.879l-1.238-3.239-.074-.194-.221-.056-4.945-1.235a.5.5,0,0,0-.059-.011.642.642,0,1,0-.192,1.269l4.828.73,1.155,3.023a.4.4,0,0,0,.746-.287Z" transform="translate(-487.923 -489.137)" fill="#777373"/>
    <g id="Group_18" data-name="Group 18" transform="translate(6.235 3.195)">
      <g id="Group_16" data-name="Group 16">
        <path id="Path_13" data-name="Path 13" d="M510.229,505.678h-8.92a2.382,2.382,0,0,1-2.1-1.442l-3.55-9.285a1.351,1.351,0,0,1,1.269-1.9l16.694.038h0a1.377,1.377,0,0,1,1.4,1.816l-2.78,9.262A2.189,2.189,0,0,1,510.229,505.678Zm-13.28-11.433a.238.238,0,0,0-.181.068.258.258,0,0,0,.014.212l3.551,9.283a1.176,1.176,0,0,0,.976.673h8.92a.994.994,0,0,0,.865-.654l2.78-9.262a.261.261,0,0,0-.011-.216.251.251,0,0,0-.2-.066Z" transform="translate(-495.554 -493.047)" fill="#777373"/>
      </g>
      <g id="Group_17" data-name="Group 17" transform="translate(2.6 1.208)">
        <path id="Path_14" data-name="Path 14" d="M509.693,498.383v-3.84l-1.2,0v3.843H503.3v-3.855l-1.2,0v3.858h-3.368l.459,1.2H502.1v5.169h1.2v-5.169h5.192v5.169h1.2v-5.169h3.338l.359-1.2Z" transform="translate(-498.736 -494.525)" fill="#777373"/>
      </g>
    </g>
  </g>
  <g id="Group_20" data-name="Group 20" transform="translate(17.915 15.027)">
    <path id="Path_15" data-name="Path 15" d="M511.811,511.455a1.963,1.963,0,1,1,1.963-1.964A1.966,1.966,0,0,1,511.811,511.455Zm0-2.7a.739.739,0,1,0,.739.738A.74.74,0,0,0,511.811,508.753Z" transform="translate(-509.848 -507.528)" fill="#777373"/>
  </g>
  <g id="Group_21" data-name="Group 21" transform="translate(11.353 15.027)">
    <path id="Path_16" data-name="Path 16" d="M503.781,511.455a1.963,1.963,0,1,1,1.964-1.964A1.966,1.966,0,0,1,503.781,511.455Zm0-2.7a.739.739,0,1,0,.739.738A.739.739,0,0,0,503.781,508.753Z" transform="translate(-501.818 -507.528)" fill="#777373"/>
  </g>
</svg>
