<svg id="Group_104" data-name="Group 104" xmlns="http://www.w3.org/2000/svg" xmlns:xlink="http://www.w3.org/1999/xlink" width="24.705" height="20.493" viewBox="0 0 24.705 20.493">
  <defs>
    <clipPath id="clip-path">
      <rect id="Rectangle_59" data-name="Rectangle 59" width="24.705" height="20.493" fill="#777373"/>
    </clipPath>
  </defs>
  <g id="Group_85" data-name="Group 85" clip-path="url(#clip-path)">
    <path id="Path_31" data-name="Path 31" d="M24.637,3.549a3.769,3.769,0,0,0-1.516-2.6,4.63,4.63,0,0,0-1.085-.59,5.731,5.731,0,0,0-2-.349L19.093.007h-.342q-1-.008-2-.007h-.02L12.666.025h-.037L8.368,0H8.346Q7.3,0,6.246.007H5.888L4.9.015A6.27,6.27,0,0,0,2.8.363a4.989,4.989,0,0,0-1.139.59,3.746,3.746,0,0,0-1.59,2.6A5.462,5.462,0,0,0,0,4.49V8.962H4.733l.167,0,.987.008h.359q1.05.006,2.1.007h.022l2.4-.014.667,0,1.193-.007h.037l4.063.025h.02q1,0,2-.007h.342l.942-.007a5.71,5.71,0,0,0,2-.349,4.59,4.59,0,0,0,1.056-.569l.029-.02a3.77,3.77,0,0,0,1.516-2.6,5.6,5.6,0,0,0,.068-.941,5.6,5.6,0,0,0-.068-.941M19.724,6.485H16.035V3.931h3.689a1.17,1.17,0,0,1,.985.56,1.337,1.337,0,0,1,.205.717,1.236,1.236,0,0,1-1.19,1.277" transform="translate(0)" fill="#777373"/>
    <path id="Path_32" data-name="Path 32" d="M24.637,78.266a3.769,3.769,0,0,0-1.516-2.6,4.63,4.63,0,0,0-1.085-.59,5.731,5.731,0,0,0-2-.349l-.942-.007h-.342q-1-.008-2-.007h-.02l-4.063.025h-.037l-4.261-.025H8.346q-1.05,0-2.1.007H5.888l-.987.008a6.27,6.27,0,0,0-2.1.348,4.989,4.989,0,0,0-1.139.59,3.746,3.746,0,0,0-1.59,2.6A5.462,5.462,0,0,0,0,79.207v4.472H4.733l.167,0,.987.008h.359q1.05.006,2.1.007h.022l2.4-.014.667,0,1.193-.007h.037l4.063.025h.02q1,0,2-.007h.342l.942-.007a5.71,5.71,0,0,0,2-.349,4.59,4.59,0,0,0,1.056-.569l.029-.02a3.77,3.77,0,0,0,1.516-2.6,6.508,6.508,0,0,0,0-1.882M19.724,81.2H16.035V78.648h3.689a1.17,1.17,0,0,1,.985.56,1.337,1.337,0,0,1,.205.717,1.236,1.236,0,0,1-1.19,1.277" transform="translate(0 -63.205)" fill="#777373"/>
  </g>
</svg>
