<svg id="Group_29" data-name="Group 29" xmlns="http://www.w3.org/2000/svg" width="24.725" height="20.767" viewBox="0 0 24.725 20.767">
  <g id="Group_25" data-name="Group 25" transform="translate(0 0)">
    <g id="Group_24" data-name="Group 24">
      <path id="Path_18" data-name="Path 18" d="M605,314.8a2.759,2.759,0,0,1-2.79-2.725h0V296.761a2.758,2.758,0,0,1,2.79-2.727h12.616a2.756,2.756,0,0,1,2.785,2.727h0v15.315a2.758,2.758,0,0,1-2.785,2.725H605Zm-1.009-18.04v15.315a1,1,0,0,0,1.009.981h12.616a.992.992,0,0,0,1-.981h0V296.761a.993.993,0,0,0-1-.983H605a1,1,0,0,0-1.009.983Z" transform="translate(-602.21 -294.034)" fill="#777373"/>
    </g>
  </g>
  <g id="Group_28" data-name="Group 28" transform="translate(4.695 1.572)">
    <path id="Path_19" data-name="Path 19" d="M615.453,310.168l-2.123-2.754-2.806,3.378.787,1.022Z" transform="translate(-608.426 -298.053)" fill="#777373"/>
    <g id="Group_26" data-name="Group 26" transform="translate(5.342)">
      <path id="Path_20" data-name="Path 20" d="M628.794,296.715a1.946,1.946,0,0,0-2.682-.386l-.869.637,2.309,3.013.863-.635A1.842,1.842,0,0,0,628.794,296.715Zm-1.948,3.79-2.312-3.021-10.04,7.337,2.313,3.012Z" transform="translate(-614.494 -295.958)" fill="#777373"/>
    </g>
    <path id="Path_21" data-name="Path 21" d="M610.336,312.907l-.748-.981-1.631,1.95Z" transform="translate(-607.956 -298.879)" fill="#777373"/>
    <g id="Group_27" data-name="Group 27" transform="translate(1.965 9.19)">
      <path id="Path_22" data-name="Path 22" d="M615.561,310.151l-4.3,1.752-.9-1.177,2.857-3.417.081.066-.081-.066.087-.1,2.255,2.945Zm-2.264-2.607-2.668,3.187.7.913,3.9-1.587-1.932-2.514Z" transform="translate(-610.361 -307.206)" fill="#777373"/>
    </g>
  </g>
</svg>
