<svg xmlns="http://www.w3.org/2000/svg" width="34.489" height="28.968" viewBox="0 0 34.489 28.968">
  <g id="Group_10" data-name="Group 10" transform="translate(-602.21 -294.034)">
    <g id="Group_6" data-name="Group 6" transform="translate(602.21 294.034)">
      <g id="Group_5" data-name="Group 5">
        <path id="Path_5" data-name="Path 5" d="M606.1,323a3.849,3.849,0,0,1-3.891-3.8h0V297.837a3.848,3.848,0,0,1,3.891-3.8h17.6a3.844,3.844,0,0,1,3.885,3.8h0V319.2A3.847,3.847,0,0,1,623.7,323H606.1Zm-1.408-25.165V319.2a1.4,1.4,0,0,0,1.408,1.368h17.6a1.384,1.384,0,0,0,1.4-1.368h0V297.837a1.385,1.385,0,0,0-1.4-1.371H606.1a1.4,1.4,0,0,0-1.408,1.371Z" transform="translate(-602.21 -294.034)" fill="#fff"/>
      </g>
    </g>
    <g id="Group_9" data-name="Group 9" transform="translate(608.759 296.227)">
      <path id="Path_6" data-name="Path 6" d="M617.4,311.256l-2.962-3.842-3.914,4.712,1.1,1.426Z" transform="translate(-607.597 -294.357)" fill="#fff"/>
      <g id="Group_7" data-name="Group 7" transform="translate(7.451)">
        <path id="Path_7" data-name="Path 7" d="M634.441,297.013a2.715,2.715,0,0,0-3.741-.539l-1.213.888,3.221,4.2,1.2-.886A2.57,2.57,0,0,0,634.441,297.013Zm-2.717,5.286-3.224-4.214-14.005,10.235,3.227,4.2Z" transform="translate(-614.494 -295.958)" fill="#fff"/>
      </g>
      <path id="Path_8" data-name="Path 8" d="M611.275,313.294l-1.044-1.368-2.275,2.72Z" transform="translate(-607.956 -293.726)" fill="#fff"/>
      <g id="Group_8" data-name="Group 8" transform="translate(2.741 12.82)">
        <path id="Path_9" data-name="Path 9" d="M617.614,311.314l-6,2.444-1.258-1.641,3.986-4.767.113.092-.113-.092.122-.144,3.146,4.108Zm-3.158-3.636-3.721,4.446.978,1.274,5.438-2.213-2.694-3.507Z" transform="translate(-610.361 -307.206)" fill="#fff"/>
      </g>
    </g>
  </g>
</svg>
