<svg xmlns="http://www.w3.org/2000/svg" width="34.155" height="29.595" viewBox="0 0 34.155 29.595">
  <g id="Group_82" data-name="Group 82" transform="translate(-21 -26.042)">
    <path id="Path_27" data-name="Path 27" d="M32.5,42.588a11.889,11.889,0,0,0-1.319-1.059,6.187,6.187,0,0,1-1.426.768,7.71,7.71,0,0,1-2.7.472q-.636.006-1.271.01h-.462q-1.352.011-2.7.01h-.027L17.1,42.755h-.049l-1.611.009-.9.006-3.242.019h-.03q-1.418,0-2.836-.009H7.951l-1.332-.011-.226,0H0v4.37q.007.452.058.928s0,.008,0,.012A6.6,6.6,0,0,0,.5,49.868a4.945,4.945,0,0,0,1.541,2.041,5.957,5.957,0,0,0,.753.5,6.945,6.945,0,0,0,1.608.654,7.848,7.848,0,0,0,1.759.256q1.108.038,2.216.056h.461q1.262.016,2.522,0c2.043-.035,3.529,1.217,4.613,3.465a13.072,13.072,0,0,1,1.037,3.178c.01.052.029.1.069.24v0c.04-.138.059-.188.069-.24a13.058,13.058,0,0,1,1.037-3.178c1.084-2.247,2.57-3.5,4.613-3.465q1.261.022,2.522,0h.462Q26.889,53.36,28,53.32a7.843,7.843,0,0,0,1.758-.256,6.927,6.927,0,0,0,1.608-.654,5.9,5.9,0,0,0,.753-.5,4.926,4.926,0,0,0,1.54-2.042,6.546,6.546,0,0,0,.441-1.8,6.458,6.458,0,0,0-1.6-5.474m-4.085,4.127a1.63,1.63,0,0,1-1.55,1.266H21.893V44.532h4.972a1.668,1.668,0,0,1,1.607,1.724,1.846,1.846,0,0,1-.057.458" transform="translate(20.999 -4.621)" fill="#0d5e00"/>
    <path id="Path_28" data-name="Path 28" d="M33.267,4.792a5.089,5.089,0,0,0-2.048-3.5,6.256,6.256,0,0,0-1.465-.8,7.735,7.735,0,0,0-2.7-.471Q26.416.014,25.781.01h-.461Q23.967,0,22.615,0h-.027L17.1.034h-.049L11.3,0H11.27Q9.851,0,8.434.01H7.95c-.445,0-.889.006-1.332.011A8.461,8.461,0,0,0,3.782.49a6.732,6.732,0,0,0-1.538.8A5.056,5.056,0,0,0,.1,4.792,7.365,7.365,0,0,0,0,6.063V12.1h6.39l.226,0,1.332.011h.484q1.418.007,2.836.009H11.3l3.242-.019.9-.006,1.611-.009H17.1l5.486.033h.027q1.352,0,2.7-.01h.461q.635,0,1.271-.01a7.705,7.705,0,0,0,2.7-.471,6.2,6.2,0,0,0,1.426-.768l.04-.027a5.09,5.09,0,0,0,2.048-3.505,7.563,7.563,0,0,0,.092-1.27,7.575,7.575,0,0,0-.092-1.271M26.633,8.757H21.652V5.308h4.981a1.58,1.58,0,0,1,1.329.756,1.8,1.8,0,0,1,.277.968,1.668,1.668,0,0,1-1.607,1.725" transform="translate(21 26.042)" fill="#179d00"/>
  </g>
</svg>
