<svg id="Group_103" data-name="Group 103" xmlns="http://www.w3.org/2000/svg" xmlns:xlink="http://www.w3.org/1999/xlink" width="26.337" height="22.727" viewBox="0 0 26.337 22.727">
  <defs>
    <clipPath id="clip-path">
      <rect id="Rectangle_68" data-name="Rectangle 68" width="26.337" height="22.727" fill="none"/>
    </clipPath>
  </defs>
  <g id="Group_103-2" data-name="Group 103" clip-path="url(#clip-path)">
    <path id="Path_38" data-name="Path 38" d="M26.337,4.7v8.058c0,.234-.018.474-.044.718a.019.019,0,0,0,0,.009,5.119,5.119,0,0,1-.34,1.39,3.831,3.831,0,0,1-1.192,1.581,4.737,4.737,0,0,1-.583.387,5.318,5.318,0,0,1-1.245.507,6.082,6.082,0,0,1-1.361.2q-.859.03-1.716.044H19.5q-.977.011-1.953,0c-1.582-.027-2.732.942-3.572,2.684a10.036,10.036,0,0,0-.8,2.456v0s0,0,0,0a10.1,10.1,0,0,0-.8-2.456c-.84-1.742-1.989-2.711-3.572-2.684q-.975.016-1.953,0H6.484c-.573-.009-1.144-.024-1.716-.044a6.07,6.07,0,0,1-1.361-.2,5.292,5.292,0,0,1-1.245-.507,4.518,4.518,0,0,1-.583-.387A3.819,3.819,0,0,1,.387,14.871a5.01,5.01,0,0,1-.34-1.39.019.019,0,0,0,0-.009C.019,13.228,0,12.988,0,12.754V4.7A5.6,5.6,0,0,1,.075,3.71,3.909,3.909,0,0,1,1.737,1,5.21,5.21,0,0,1,2.928.38a6.532,6.532,0,0,1,2.2-.363c.345,0,.686-.006,1.031-.009H6.53Q7.628,0,8.726,0h.023l4.419.026h0L17.587,0h.024c.732,0,1.463,0,2.2.008h.374c.345,0,.688,0,1.033.009a6.532,6.532,0,0,1,2.2.363A5.169,5.169,0,0,1,24.6,1,3.911,3.911,0,0,1,26.262,3.71a5.6,5.6,0,0,1,.074.986" transform="translate(0)" fill="#179d00"/>
  </g>
</svg>
