<svg id="Group_31" data-name="Group 31" xmlns="http://www.w3.org/2000/svg" width="22.226" height="24.268" viewBox="0 0 22.226 24.268">
  <g id="Group_30" data-name="Group 30" transform="translate(0)">
    <path id="Path_23" data-name="Path 23" d="M331.537,513.249c3.093,0,5.607-2.088,5.607-4.664s-2.514-4.651-5.607-4.651-5.611,2.083-5.611,4.651S328.435,513.249,331.537,513.249Z" transform="translate(-320.313 -503.934)" fill="#777373"/>
    <path id="Path_24" data-name="Path 24" d="M331.331,517.043l-.605,1.168.761,5.955L330.17,525.5l-1.316-1.331.732-5.955L329,517.042c-5.593.674-9.946,6.167-9.946,12.852a6.547,6.547,0,0,0,.025.706h22.174c.023-.234.027-.469.027-.706C341.283,523.211,336.93,517.719,331.331,517.043Z" transform="translate(-319.057 -506.332)" fill="#777373"/>
  </g>
</svg>
