<svg id="Group_15" data-name="Group 15" xmlns="http://www.w3.org/2000/svg" width="21.701" height="18.382" viewBox="0 0 21.701 18.382">
  <g id="Group_11" data-name="Group 11" transform="translate(0.192 5.69)">
    <rect id="Rectangle_22" data-name="Rectangle 22" width="4.275" height="12.692" transform="translate(17.234)" fill="#777373"/>
    <rect id="Rectangle_23" data-name="Rectangle 23" width="4.275" height="10.02" transform="translate(11.49 2.672)" fill="#777373"/>
    <rect id="Rectangle_24" data-name="Rectangle 24" width="4.275" height="7.348" transform="translate(5.745 5.344)" fill="#777373"/>
    <rect id="Rectangle_25" data-name="Rectangle 25" width="4.275" height="4.676" transform="translate(0 8.016)" fill="#777373"/>
  </g>
  <g id="Group_14" data-name="Group 14">
    <g id="Group_12" data-name="Group 12" transform="translate(0 1.294)">
      <path id="Path_10" data-name="Path 10" d="M464.64,473.4a.4.4,0,0,1-.114-.789,64.637,64.637,0,0,0,18.618-8.569.4.4,0,0,1,.454.661,65.48,65.48,0,0,1-18.88,8.686A.379.379,0,0,1,464.64,473.4Z" transform="translate(-464.222 -463.976)" fill="#777373"/>
    </g>
    <g id="Group_13" data-name="Group 13" transform="translate(17.497)">
      <path id="Path_11" data-name="Path 11" d="M487.965,466.033l1.647-3.641-3.977.393Z" transform="translate(-485.635 -462.392)" fill="#777373"/>
    </g>
  </g>
</svg>
